<svg width="211" height="212" xmlns="http://www.w3.org/2000/svg"><defs><linearGradient x1="60.565%" y1="100%" x2="39.435%" y2="0%" id="a"><stop stop-color="#8739E5" offset="0%"/><stop stop-color="#5496FF" offset="100%"/></linearGradient><linearGradient x1="100%" y1="99.829%" x2="0%" y2=".171%" id="b"><stop stop-color="#8739E5" offset="0%"/><stop stop-color="#5496FF" offset="100%"/></linearGradient></defs><g fill="none" fill-rule="evenodd"><text fill="url(#a)" font-family="Monaco" font-size="198" letter-spacing="-4.95" transform="translate(48 -27)"><tspan x="0" y="198">~</tspan></text><path d="M53.423 131.882l11.585-.061a5.259 5.259 0 0 1-5.259 5.259h-1.128a5.198 5.198 0 0 1-5.198-5.198z" fill="#7063F1"/><path d="M149.03 102.198l12.38.06A5.259 5.259 0 0 0 156.151 97h-1.923a5.198 5.198 0 0 0-5.198 5.198z" fill="#735EEF"/><g><path d="M115.168 53.181C119.512 45.322 127.885 40 137.5 40c14.083 0 25.5 11.417 25.5 25.5v23.936l9.121 6.914a25 25 0 0 1 8.768 27.357L153.7 211.004a25 25 0 0 1-23.869 17.566H43.17a25 25 0 0 1-23.87-17.566l-27.188-87.297A25 25 0 0 1 .879 96.35l70.52-53.452a25 25 0 0 1 30.202 0l13.567 10.283z" stroke="url(#b)" stroke-width="20" fill="none" transform="translate(19 -27)"/><text fill="url(#a)" font-family="Monaco" font-size="198" letter-spacing="-4.95" transform="translate(48 -27)"><tspan x="0" y="198">~</tspan></text><path d="M53.423 131.882l11.585-.061a5.259 5.259 0 0 1-5.259 5.259h-1.128a5.198 5.198 0 0 1-5.198-5.198z" fill="#7063F1"/><path d="M149.03 102.198l12.38.06A5.259 5.259 0 0 0 156.151 97h-1.923a5.198 5.198 0 0 0-5.198 5.198z" fill="#735EEF"/></g></g></svg>